{"title":"Contracted.Phase.II.2015.1080p.BluRay.REMUX.AVC.DTS-HD.MA.5.1-RA","uid":13138679,"size":18891261679,"categoryP":"video","categoryS":"hd___movies","magnet":"?xt=urn:btih:cdd9fbc17a5715b5ce9f590af4d18553ac5950a3&amp;dn=Contracted.Phase.II.2015.1080p.BluRay.REMUX.AVC.DTS-HD.MA.5.1-RA&amp;tr=udp%3A%2F%2Ftracker.leechers-paradise.org%3A6969&amp;tr=udp%3A%2F%2Fzer0day.ch%3A1337&amp;tr=udp%3A%2F%2Fopen.demonii.com%3A1337&amp;tr=udp%3A%2F%2Ftracker.coppersurfer.tk%3A6969&amp;tr=udp%3A%2F%2Fexodus.desync.com%3A6969","seeders":0,"leechers":0,"uploader":null,"files":4,"time":1451941308,"description":"Video\r\nID                                       : 1\r\nFormat                                   : AVC\r\nFormat/Info                              : Advanced Video Codec\r\nFormat profile                           :   \r\nFormat settings, CABAC                   : Yes\r\nFormat settings, ReFrames                : 2 frames\r\nFormat settings, GOP                     : M=1, N=5\r\nCodec ID                                 : V_MPEG4/ISO/AVC\r\nDuration                                 : 1h 18mn\r\nBit rate mode                            : Variable\r\nMaximum bit rate                         : 32.2 Mbps\r\nWidth                                    : 1 920 pixels\r\nHeight                                   : 1 080 pixels\r\nDisplay aspect ratio                     : 16:9\r\nFrame rate mode                          : Constant\r\nFrame rate                               : 23.976 (24000/1001) fps\r\nColor space                              : YUV\r\nChroma subsampling                       : 4:2:0\r\nBit depth                                : 8 bits\r\nScan type                                : Progressive\r\nTitle                                    : Contracted.Phase.II.2015.1080p.BluRay.REMUX.AVC.DTS-HD.MA.5.1-RARBG\r\nLanguage                                 : English\r\nDefault                                  : No\r\nForced                                   : No\r\n\r\nAudio #1\r\nID                                       : 2\r\nFormat                                   : DTS\r\nFormat/Info                              : Digital Theater Systems\r\nFormat profile                           : MA / Core\r\nMode                                     : 16\r\nFormat settings, Endianness              : Big\r\nCodec ID                                 : A_DTS\r\nDuration                                 : 1h 18mn\r\nBit rate mode                            : Variable / Constant\r\nBit rate                                 : Unknown / 1 509 Kbps\r\nChannel(s)                               : 6 channels\r\nChannel positions                        : Front: L C R, Side: L R, LFE\r\nSampling rate                            : 48.0 KHz\r\nFrame rate                               : 93.750 fps (512 spf)\r\nBit depth                                : 24 bits\r\nCompression mode                         : Lossless / Lossy\r\nTitle                                    : Contracted.Phase.II.2015.1080p.BluRay.REMUX.AVC.DTS-HD.MA.5.1-RARBG\r\nLanguage                                 : English\r\nDefault                                  : Yes\r\nForced                                   : No\r\n\r\nAudio #2\r\nID                                       : 3\r\nFormat                                   : DTS\r\nFormat/Info                              : Digital Theater Systems\r\nMode                                     : 16\r\nFormat settings, Endianness              : Big\r\nCodec ID                                 : A_DTS\r\nDuration                                 : 1h 18mn\r\nBit rate mode                            : Constant\r\nBit rate                                 : 1 509 Kbps\r\nChannel(s)                               : 6 channels\r\nChannel positions                        : Front: L C R, Side: L R, LFE\r\nSampling rate                            : 48.0 KHz\r\nFrame rate                               : 93.750 fps (512 spf)\r\nBit depth                                : 24 bits\r\nCompression mode                         : Lossy\r\nStream size                              : 847 MiB (5%)\r\nTitle                                    : Contracted.Phase.II.2015.1080p.BluRay.REMUX.AVC.DTS-HD.MA.5.1-RARBG\r\nLanguage                                 : English\r\nDefault                                  : No\r\nForced                                   : No\r\n\r\nAudio #3\r\nID                                       : 4\r\nFormat                                   : DTS\r\nFormat/Info                              : Digital Theater Systems\r\nFormat profile                           : MA / Core\r\nMode                                     : 16\r\nFormat settings, Endianness              : Big\r\nCodec ID                                 : A_DTS\r\nDuration                                 : 1h 18mn\r\nBit rate mode                            : Variable / Constant\r\nBit rate                                 : Unknown / 1 509 Kbps\r\nChannel(s)                               : 2 channels\r\nChannel positions                        : Front: L R\r\nSampling rate                            : 48.0 KHz\r\nFrame rate                               : 93.750 fps (512 spf)\r\nBit depth                                : 24 bits\r\nCompression mode                         : Lossless / Lossy\r\nTitle                                    : Contracted.Phase.II.2015.1080p.BluRay.REMUX.AVC.DTS-HD.MA.5.1-RARBG\r\nLanguage                                 : English\r\nDefault                                  : No\r\nForced                                   : No\r\n\r\nAudio #4\r\nID                                       : 5\r\nFormat                                   : DTS\r\nFormat/Info                              : Digital Theater Systems\r\nMode                                     : 16\r\nFormat settings, Endianness              : Big\r\nCodec ID                                 : A_DTS\r\nDuration                                 : 1h 18mn\r\nBit rate mode                            : Constant\r\nBit rate                                 : 1 509 Kbps\r\nChannel(s)                               : 2 channels\r\nChannel positions                        : Front: L R\r\nSampling rate                            : 48.0 KHz\r\nFrame rate                               : 93.750 fps (512 spf)\r\nBit depth                                : 24 bits\r\nCompression mode                         : Lossy\r\nStream size                              : 847 MiB (5%)\r\nTitle                                    : Contracted.Phase.II.2015.1080p.BluRay.REMUX.AVC.DTS-HD.MA.5.1-RARBG\r\nLanguage                                 : English\r\nDefault                                  : No\r\nForced                                   : No\r\n\r\nText #1\r\nID                                       : 6\r\nFormat                                   : PGS\r\nMuxing mode                              : zlib\r\nCodec ID                                 : S_HDMV/PGS\r\nCodec ID/Info                            : Picture based subtitle format used on BDs/HD-DVDs\r\nLanguage                                 : English\r\nDefault                                  : No\r\nForced                                   : No\r\n\r\nText #2\r\nID                                       : 7\r\nFormat                                   : PGS\r\nMuxing mode                              : zlib\r\nCodec ID                                 : S_HDMV/PGS\r\nCodec ID/Info                            : Picture based subtitle format used on BDs/HD-DVDs\r\nLanguage                                 : Spanish\r\nDefault                                  : No\r\nForced                                   : No","torrent":{"xt":"urn:btih:cdd9fbc17a5715b5ce9f590af4d18553ac5950a3","amp;dn":"Contracted.Phase.II.2015.1080p.BluRay.REMUX.AVC.DTS-HD.MA.5.1-RA","amp;tr":["udp%3A%2F%2Ftracker.leechers-paradise.org%3A6969","udp%3A%2F%2Fzer0day.ch%3A1337","udp%3A%2F%2Fopen.demonii.com%3A1337","udp%3A%2F%2Ftracker.coppersurfer.tk%3A6969","udp%3A%2F%2Fexodus.desync.com%3A6969"],"infoHash":"cdd9fbc17a5715b5ce9f590af4d18553ac5950a3","infoHashBuffer":{"type":"Buffer","data":[205,217,251,193,122,87,21,181,206,159,89,10,244,209,133,83,172,89,80,163]},"announce":[],"urlList":[]}}